<svg xmlns="http://www.w3.org/2000/svg" viewBox="0 0 1280 352" width="1280" height="352">
  <defs>
    <pattern id="dotsA" width="40" height="40" patternUnits="userSpaceOnUse">
      <circle cx="1" cy="1" r="1" fill="#FFFFFF" fill-opacity="0.03"/>
    </pattern>
  </defs>
  <rect width="1280" height="352" fill="#08090C"/>
  <rect width="1280" height="352" fill="url(#dotsA)"/>
  <g transform="translate(96, 60)">
    <text x="0" y="0" font-family="ui-monospace, SFMono-Regular, Menlo, Consolas, monospace" font-size="11" font-weight="500" fill="#6B7085" letter-spacing="3.5">&#8212;&#8201;&#8201;&#8201;CONTRIBUTION ACTIVITY</text>
    <text x="0" y="28" font-family="ui-sans-serif, -apple-system, 'Inter', 'Segoe UI', sans-serif" font-size="24" font-weight="600" fill="#E8EAED" letter-spacing="-0.8">1282 contributions in the last year.</text>
  </g>
  <text x="96" y="146" font-family="ui-monospace, SFMono-Regular, Menlo, monospace" font-size="10" font-weight="500" fill="#6B7085" letter-spacing="1.8">APR</text>
  <text x="128" y="146" font-family="ui-monospace, SFMono-Regular, Menlo, monospace" font-size="10" font-weight="500" fill="#6B7085" letter-spacing="1.8">MAY</text>
  <text x="192" y="146" font-family="ui-monospace, SFMono-Regular, Menlo, monospace" font-size="10" font-weight="500" fill="#6B7085" letter-spacing="1.8">JUN</text>
  <text x="272" y="146" font-family="ui-monospace, SFMono-Regular, Menlo, monospace" font-size="10" font-weight="500" fill="#6B7085" letter-spacing="1.8">JUL</text>
  <text x="336" y="146" font-family="ui-monospace, SFMono-Regular, Menlo, monospace" font-size="10" font-weight="500" fill="#6B7085" letter-spacing="1.8">AUG</text>
  <text x="416" y="146" font-family="ui-monospace, SFMono-Regular, Menlo, monospace" font-size="10" font-weight="500" fill="#6B7085" letter-spacing="1.8">SEP</text>
  <text x="480" y="146" font-family="ui-monospace, SFMono-Regular, Menlo, monospace" font-size="10" font-weight="500" fill="#6B7085" letter-spacing="1.8">OCT</text>
  <text x="544" y="146" font-family="ui-monospace, SFMono-Regular, Menlo, monospace" font-size="10" font-weight="500" fill="#6B7085" letter-spacing="1.8">NOV</text>
  <text x="624" y="146" font-family="ui-monospace, SFMono-Regular, Menlo, monospace" font-size="10" font-weight="500" fill="#6B7085" letter-spacing="1.8">DEC</text>
  <text x="688" y="146" font-family="ui-monospace, SFMono-Regular, Menlo, monospace" font-size="10" font-weight="500" fill="#6B7085" letter-spacing="1.8">JAN</text>
  <text x="752" y="146" font-family="ui-monospace, SFMono-Regular, Menlo, monospace" font-size="10" font-weight="500" fill="#6B7085" letter-spacing="1.8">FEB</text>
  <text x="816" y="146" font-family="ui-monospace, SFMono-Regular, Menlo, monospace" font-size="10" font-weight="500" fill="#6B7085" letter-spacing="1.8">MAR</text>
  <text x="896" y="146" font-family="ui-monospace, SFMono-Regular, Menlo, monospace" font-size="10" font-weight="500" fill="#6B7085" letter-spacing="1.8">APR</text>
  <text x="56" y="186" font-family="ui-monospace, SFMono-Regular, Menlo, monospace" font-size="10" font-weight="500" fill="#6B7085" letter-spacing="1">Mon</text>
  <text x="56" y="218" font-family="ui-monospace, SFMono-Regular, Menlo, monospace" font-size="10" font-weight="500" fill="#6B7085" letter-spacing="1">Wed</text>
  <text x="56" y="250" font-family="ui-monospace, SFMono-Regular, Menlo, monospace" font-size="10" font-weight="500" fill="#6B7085" letter-spacing="1">Fri</text>
  <rect x="96" y="160" width="13" height="13" rx="3" fill="#14161C"/>
  <rect x="96" y="176" width="13" height="13" rx="3" fill="#14161C"/>
  <rect x="96" y="192" width="13" height="13" rx="3" fill="#14161C"/>
  <rect x="96" y="208" width="13" height="13" rx="3" fill="#14161C"/>
  <rect x="96" y="224" width="13" height="13" rx="3" fill="#14161C"/>
  <rect x="96" y="240" width="13" height="13" rx="3" fill="#14161C"/>
  <rect x="96" y="256" width="13" height="13" rx="3" fill="#14161C"/>
  <rect x="112" y="160" width="13" height="13" rx="3" fill="#14161C"/>
  <rect x="112" y="176" width="13" height="13" rx="3" fill="#14161C"/>
  <rect x="112" y="192" width="13" height="13" rx="3" fill="#14161C"/>
  <rect x="112" y="208" width="13" height="13" rx="3" fill="#14161C"/>
  <rect x="112" y="224" width="13" height="13" rx="3" fill="#14161C"/>
  <rect x="112" y="240" width="13" height="13" rx="3" fill="#14161C"/>
  <rect x="112" y="256" width="13" height="13" rx="3" fill="#14161C"/>
  <rect x="128" y="160" width="13" height="13" rx="3" fill="#14161C"/>
  <rect x="128" y="176" width="13" height="13" rx="3" fill="#14161C"/>
  <rect x="128" y="192" width="13" height="13" rx="3" fill="#14161C"/>
  <rect x="128" y="208" width="13" height="13" rx="3" fill="#14161C"/>
  <rect x="128" y="224" width="13" height="13" rx="3" fill="#14161C"/>
  <rect x="128" y="240" width="13" height="13" rx="3" fill="#14161C"/>
  <rect x="128" y="256" width="13" height="13" rx="3" fill="#14161C"/>
  <rect x="144" y="160" width="13" height="13" rx="3" fill="#14161C"/>
  <rect x="144" y="176" width="13" height="13" rx="3" fill="#14161C"/>
  <rect x="144" y="192" width="13" height="13" rx="3" fill="#14161C"/>
  <rect x="144" y="208" width="13" height="13" rx="3" fill="#14161C"/>
  <rect x="144" y="224" width="13" height="13" rx="3" fill="#14161C"/>
  <rect x="144" y="240" width="13" height="13" rx="3" fill="#14161C"/>
  <rect x="144" y="256" width="13" height="13" rx="3" fill="#14161C"/>
  <rect x="160" y="160" width="13" height="13" rx="3" fill="#14161C"/>
  <rect x="160" y="176" width="13" height="13" rx="3" fill="#14161C"/>
  <rect x="160" y="192" width="13" height="13" rx="3" fill="#14161C"/>
  <rect x="160" y="208" width="13" height="13" rx="3" fill="#14161C"/>
  <rect x="160" y="224" width="13" height="13" rx="3" fill="#14161C"/>
  <rect x="160" y="240" width="13" height="13" rx="3" fill="#14161C"/>
  <rect x="160" y="256" width="13" height="13" rx="3" fill="#14161C"/>
  <rect x="176" y="160" width="13" height="13" rx="3" fill="#14161C"/>
  <rect x="176" y="176" width="13" height="13" rx="3" fill="#14161C"/>
  <rect x="176" y="192" width="13" height="13" rx="3" fill="#14161C"/>
  <rect x="176" y="208" width="13" height="13" rx="3" fill="#14161C"/>
  <rect x="176" y="224" width="13" height="13" rx="3" fill="#14161C"/>
  <rect x="176" y="240" width="13" height="13" rx="3" fill="#14161C"/>
  <rect x="176" y="256" width="13" height="13" rx="3" fill="#14161C"/>
  <rect x="192" y="160" width="13" height="13" rx="3" fill="#14161C"/>
  <rect x="192" y="176" width="13" height="13" rx="3" fill="#14161C"/>
  <rect x="192" y="192" width="13" height="13" rx="3" fill="#14161C"/>
  <rect x="192" y="208" width="13" height="13" rx="3" fill="#14161C"/>
  <rect x="192" y="224" width="13" height="13" rx="3" fill="#14161C"/>
  <rect x="192" y="240" width="13" height="13" rx="3" fill="#14161C"/>
  <rect x="192" y="256" width="13" height="13" rx="3" fill="#14161C"/>
  <rect x="208" y="160" width="13" height="13" rx="3" fill="#14161C"/>
  <rect x="208" y="176" width="13" height="13" rx="3" fill="#14161C"/>
  <rect x="208" y="192" width="13" height="13" rx="3" fill="#14161C"/>
  <rect x="208" y="208" width="13" height="13" rx="3" fill="#14161C"/>
  <rect x="208" y="224" width="13" height="13" rx="3" fill="#14161C"/>
  <rect x="208" y="240" width="13" height="13" rx="3" fill="#14161C"/>
  <rect x="208" y="256" width="13" height="13" rx="3" fill="#14161C"/>
  <rect x="224" y="160" width="13" height="13" rx="3" fill="#14161C"/>
  <rect x="224" y="176" width="13" height="13" rx="3" fill="#14161C"/>
  <rect x="224" y="192" width="13" height="13" rx="3" fill="#14161C"/>
  <rect x="224" y="208" width="13" height="13" rx="3" fill="#14161C"/>
  <rect x="224" y="224" width="13" height="13" rx="3" fill="#14161C"/>
  <rect x="224" y="240" width="13" height="13" rx="3" fill="#14161C"/>
  <rect x="224" y="256" width="13" height="13" rx="3" fill="#14161C"/>
  <rect x="240" y="160" width="13" height="13" rx="3" fill="#14161C"/>
  <rect x="240" y="176" width="13" height="13" rx="3" fill="#14161C"/>
  <rect x="240" y="192" width="13" height="13" rx="3" fill="#14161C"/>
  <rect x="240" y="208" width="13" height="13" rx="3" fill="#14161C"/>
  <rect x="240" y="224" width="13" height="13" rx="3" fill="#14161C"/>
  <rect x="240" y="240" width="13" height="13" rx="3" fill="#14161C"/>
  <rect x="240" y="256" width="13" height="13" rx="3" fill="#14161C"/>
  <rect x="256" y="160" width="13" height="13" rx="3" fill="#14161C"/>
  <rect x="256" y="176" width="13" height="13" rx="3" fill="#14161C"/>
  <rect x="256" y="192" width="13" height="13" rx="3" fill="#14161C"/>
  <rect x="256" y="208" width="13" height="13" rx="3" fill="#14161C"/>
  <rect x="256" y="224" width="13" height="13" rx="3" fill="#14161C"/>
  <rect x="256" y="240" width="13" height="13" rx="3" fill="#14161C"/>
  <rect x="256" y="256" width="13" height="13" rx="3" fill="#14161C"/>
  <rect x="272" y="160" width="13" height="13" rx="3" fill="#14161C"/>
  <rect x="272" y="176" width="13" height="13" rx="3" fill="#14161C"/>
  <rect x="272" y="192" width="13" height="13" rx="3" fill="#14161C"/>
  <rect x="272" y="208" width="13" height="13" rx="3" fill="#14161C"/>
  <rect x="272" y="224" width="13" height="13" rx="3" fill="#14161C"/>
  <rect x="272" y="240" width="13" height="13" rx="3" fill="#14161C"/>
  <rect x="272" y="256" width="13" height="13" rx="3" fill="#14161C"/>
  <rect x="288" y="160" width="13" height="13" rx="3" fill="#14161C"/>
  <rect x="288" y="176" width="13" height="13" rx="3" fill="#14161C"/>
  <rect x="288" y="192" width="13" height="13" rx="3" fill="#14161C"/>
  <rect x="288" y="208" width="13" height="13" rx="3" fill="#14161C"/>
  <rect x="288" y="224" width="13" height="13" rx="3" fill="#14161C"/>
  <rect x="288" y="240" width="13" height="13" rx="3" fill="#14161C"/>
  <rect x="288" y="256" width="13" height="13" rx="3" fill="#14161C"/>
  <rect x="304" y="160" width="13" height="13" rx="3" fill="#14161C"/>
  <rect x="304" y="176" width="13" height="13" rx="3" fill="#14161C"/>
  <rect x="304" y="192" width="13" height="13" rx="3" fill="#14161C"/>
  <rect x="304" y="208" width="13" height="13" rx="3" fill="#14161C"/>
  <rect x="304" y="224" width="13" height="13" rx="3" fill="#14161C"/>
  <rect x="304" y="240" width="13" height="13" rx="3" fill="#14161C"/>
  <rect x="304" y="256" width="13" height="13" rx="3" fill="#14161C"/>
  <rect x="320" y="160" width="13" height="13" rx="3" fill="#14161C"/>
  <rect x="320" y="176" width="13" height="13" rx="3" fill="#14161C"/>
  <rect x="320" y="192" width="13" height="13" rx="3" fill="#14161C"/>
  <rect x="320" y="208" width="13" height="13" rx="3" fill="#14161C"/>
  <rect x="320" y="224" width="13" height="13" rx="3" fill="#14161C"/>
  <rect x="320" y="240" width="13" height="13" rx="3" fill="#14161C"/>
  <rect x="320" y="256" width="13" height="13" rx="3" fill="#14161C"/>
  <rect x="336" y="160" width="13" height="13" rx="3" fill="#14161C"/>
  <rect x="336" y="176" width="13" height="13" rx="3" fill="#14161C"/>
  <rect x="336" y="192" width="13" height="13" rx="3" fill="#14161C"/>
  <rect x="336" y="208" width="13" height="13" rx="3" fill="#14161C"/>
  <rect x="336" y="224" width="13" height="13" rx="3" fill="#14161C"/>
  <rect x="336" y="240" width="13" height="13" rx="3" fill="#14161C"/>
  <rect x="336" y="256" width="13" height="13" rx="3" fill="#14161C"/>
  <rect x="352" y="160" width="13" height="13" rx="3" fill="#14161C"/>
  <rect x="352" y="176" width="13" height="13" rx="3" fill="#14161C"/>
  <rect x="352" y="192" width="13" height="13" rx="3" fill="#14161C"/>
  <rect x="352" y="208" width="13" height="13" rx="3" fill="#14161C"/>
  <rect x="352" y="224" width="13" height="13" rx="3" fill="#14161C"/>
  <rect x="352" y="240" width="13" height="13" rx="3" fill="#14161C"/>
  <rect x="352" y="256" width="13" height="13" rx="3" fill="#14161C"/>
  <rect x="368" y="160" width="13" height="13" rx="3" fill="#14161C"/>
  <rect x="368" y="176" width="13" height="13" rx="3" fill="#14161C"/>
  <rect x="368" y="192" width="13" height="13" rx="3" fill="#14161C"/>
  <rect x="368" y="208" width="13" height="13" rx="3" fill="#14161C"/>
  <rect x="368" y="224" width="13" height="13" rx="3" fill="#14161C"/>
  <rect x="368" y="240" width="13" height="13" rx="3" fill="#14161C"/>
  <rect x="368" y="256" width="13" height="13" rx="3" fill="#14161C"/>
  <rect x="384" y="160" width="13" height="13" rx="3" fill="#14161C"/>
  <rect x="384" y="176" width="13" height="13" rx="3" fill="#14161C"/>
  <rect x="384" y="192" width="13" height="13" rx="3" fill="#14161C"/>
  <rect x="384" y="208" width="13" height="13" rx="3" fill="#14161C"/>
  <rect x="384" y="224" width="13" height="13" rx="3" fill="#14161C"/>
  <rect x="384" y="240" width="13" height="13" rx="3" fill="#14161C"/>
  <rect x="384" y="256" width="13" height="13" rx="3" fill="#14161C"/>
  <rect x="400" y="160" width="13" height="13" rx="3" fill="#14161C"/>
  <rect x="400" y="176" width="13" height="13" rx="3" fill="#14161C"/>
  <rect x="400" y="192" width="13" height="13" rx="3" fill="#14161C"/>
  <rect x="400" y="208" width="13" height="13" rx="3" fill="#14161C"/>
  <rect x="400" y="224" width="13" height="13" rx="3" fill="#14161C"/>
  <rect x="400" y="240" width="13" height="13" rx="3" fill="#14161C"/>
  <rect x="400" y="256" width="13" height="13" rx="3" fill="#14161C"/>
  <rect x="416" y="160" width="13" height="13" rx="3" fill="#14161C"/>
  <rect x="416" y="176" width="13" height="13" rx="3" fill="#14161C"/>
  <rect x="416" y="192" width="13" height="13" rx="3" fill="#14161C"/>
  <rect x="416" y="208" width="13" height="13" rx="3" fill="#14161C"/>
  <rect x="416" y="224" width="13" height="13" rx="3" fill="#14161C"/>
  <rect x="416" y="240" width="13" height="13" rx="3" fill="#14161C"/>
  <rect x="416" y="256" width="13" height="13" rx="3" fill="#14161C"/>
  <rect x="432" y="160" width="13" height="13" rx="3" fill="#14161C"/>
  <rect x="432" y="176" width="13" height="13" rx="3" fill="#14161C"/>
  <rect x="432" y="192" width="13" height="13" rx="3" fill="#14161C"/>
  <rect x="432" y="208" width="13" height="13" rx="3" fill="#14161C"/>
  <rect x="432" y="224" width="13" height="13" rx="3" fill="#14161C"/>
  <rect x="432" y="240" width="13" height="13" rx="3" fill="#14161C"/>
  <rect x="432" y="256" width="13" height="13" rx="3" fill="#14161C"/>
  <rect x="448" y="160" width="13" height="13" rx="3" fill="#14161C"/>
  <rect x="448" y="176" width="13" height="13" rx="3" fill="#14161C"/>
  <rect x="448" y="192" width="13" height="13" rx="3" fill="#14161C"/>
  <rect x="448" y="208" width="13" height="13" rx="3" fill="#14161C"/>
  <rect x="448" y="224" width="13" height="13" rx="3" fill="#14161C"/>
  <rect x="448" y="240" width="13" height="13" rx="3" fill="#14161C"/>
  <rect x="448" y="256" width="13" height="13" rx="3" fill="#14161C"/>
  <rect x="464" y="160" width="13" height="13" rx="3" fill="#14161C"/>
  <rect x="464" y="176" width="13" height="13" rx="3" fill="#14161C"/>
  <rect x="464" y="192" width="13" height="13" rx="3" fill="#14161C"/>
  <rect x="464" y="208" width="13" height="13" rx="3" fill="#14161C"/>
  <rect x="464" y="224" width="13" height="13" rx="3" fill="#14161C"/>
  <rect x="464" y="240" width="13" height="13" rx="3" fill="#14161C"/>
  <rect x="464" y="256" width="13" height="13" rx="3" fill="#14161C"/>
  <rect x="480" y="160" width="13" height="13" rx="3" fill="#14161C"/>
  <rect x="480" y="176" width="13" height="13" rx="3" fill="#14161C"/>
  <rect x="480" y="192" width="13" height="13" rx="3" fill="#14161C"/>
  <rect x="480" y="208" width="13" height="13" rx="3" fill="#14161C"/>
  <rect x="480" y="224" width="13" height="13" rx="3" fill="#14161C"/>
  <rect x="480" y="240" width="13" height="13" rx="3" fill="#14161C"/>
  <rect x="480" y="256" width="13" height="13" rx="3" fill="#14161C"/>
  <rect x="496" y="160" width="13" height="13" rx="3" fill="#14161C"/>
  <rect x="496" y="176" width="13" height="13" rx="3" fill="#14161C"/>
  <rect x="496" y="192" width="13" height="13" rx="3" fill="#14161C"/>
  <rect x="496" y="208" width="13" height="13" rx="3" fill="#14161C"/>
  <rect x="496" y="224" width="13" height="13" rx="3" fill="#14161C"/>
  <rect x="496" y="240" width="13" height="13" rx="3" fill="#14161C"/>
  <rect x="496" y="256" width="13" height="13" rx="3" fill="#14161C"/>
  <rect x="512" y="160" width="13" height="13" rx="3" fill="#14161C"/>
  <rect x="512" y="176" width="13" height="13" rx="3" fill="#14161C"/>
  <rect x="512" y="192" width="13" height="13" rx="3" fill="#14161C"/>
  <rect x="512" y="208" width="13" height="13" rx="3" fill="#14161C"/>
  <rect x="512" y="224" width="13" height="13" rx="3" fill="#14161C"/>
  <rect x="512" y="240" width="13" height="13" rx="3" fill="#14161C"/>
  <rect x="512" y="256" width="13" height="13" rx="3" fill="#14161C"/>
  <rect x="528" y="160" width="13" height="13" rx="3" fill="#14161C"/>
  <rect x="528" y="176" width="13" height="13" rx="3" fill="#14161C"/>
  <rect x="528" y="192" width="13" height="13" rx="3" fill="#14161C"/>
  <rect x="528" y="208" width="13" height="13" rx="3" fill="#4E44A8"/>
  <rect x="528" y="224" width="13" height="13" rx="3" fill="#14161C"/>
  <rect x="528" y="240" width="13" height="13" rx="3" fill="#14161C"/>
  <rect x="528" y="256" width="13" height="13" rx="3" fill="#14161C"/>
  <rect x="544" y="160" width="13" height="13" rx="3" fill="#14161C"/>
  <rect x="544" y="176" width="13" height="13" rx="3" fill="#14161C"/>
  <rect x="544" y="192" width="13" height="13" rx="3" fill="#14161C"/>
  <rect x="544" y="208" width="13" height="13" rx="3" fill="#14161C"/>
  <rect x="544" y="224" width="13" height="13" rx="3" fill="#14161C"/>
  <rect x="544" y="240" width="13" height="13" rx="3" fill="#14161C"/>
  <rect x="544" y="256" width="13" height="13" rx="3" fill="#14161C"/>
  <rect x="560" y="160" width="13" height="13" rx="3" fill="#14161C"/>
  <rect x="560" y="176" width="13" height="13" rx="3" fill="#14161C"/>
  <rect x="560" y="192" width="13" height="13" rx="3" fill="#14161C"/>
  <rect x="560" y="208" width="13" height="13" rx="3" fill="#14161C"/>
  <rect x="560" y="224" width="13" height="13" rx="3" fill="#14161C"/>
  <rect x="560" y="240" width="13" height="13" rx="3" fill="#14161C"/>
  <rect x="560" y="256" width="13" height="13" rx="3" fill="#14161C"/>
  <rect x="576" y="160" width="13" height="13" rx="3" fill="#14161C"/>
  <rect x="576" y="176" width="13" height="13" rx="3" fill="#14161C"/>
  <rect x="576" y="192" width="13" height="13" rx="3" fill="#14161C"/>
  <rect x="576" y="208" width="13" height="13" rx="3" fill="#14161C"/>
  <rect x="576" y="224" width="13" height="13" rx="3" fill="#14161C"/>
  <rect x="576" y="240" width="13" height="13" rx="3" fill="#14161C"/>
  <rect x="576" y="256" width="13" height="13" rx="3" fill="#14161C"/>
  <rect x="592" y="160" width="13" height="13" rx="3" fill="#14161C"/>
  <rect x="592" y="176" width="13" height="13" rx="3" fill="#14161C"/>
  <rect x="592" y="192" width="13" height="13" rx="3" fill="#14161C"/>
  <rect x="592" y="208" width="13" height="13" rx="3" fill="#14161C"/>
  <rect x="592" y="224" width="13" height="13" rx="3" fill="#14161C"/>
  <rect x="592" y="240" width="13" height="13" rx="3" fill="#14161C"/>
  <rect x="592" y="256" width="13" height="13" rx="3" fill="#14161C"/>
  <rect x="608" y="160" width="13" height="13" rx="3" fill="#14161C"/>
  <rect x="608" y="176" width="13" height="13" rx="3" fill="#14161C"/>
  <rect x="608" y="192" width="13" height="13" rx="3" fill="#14161C"/>
  <rect x="608" y="208" width="13" height="13" rx="3" fill="#14161C"/>
  <rect x="608" y="224" width="13" height="13" rx="3" fill="#14161C"/>
  <rect x="608" y="240" width="13" height="13" rx="3" fill="#14161C"/>
  <rect x="608" y="256" width="13" height="13" rx="3" fill="#14161C"/>
  <rect x="624" y="160" width="13" height="13" rx="3" fill="#14161C"/>
  <rect x="624" y="176" width="13" height="13" rx="3" fill="#14161C"/>
  <rect x="624" y="192" width="13" height="13" rx="3" fill="#14161C"/>
  <rect x="624" y="208" width="13" height="13" rx="3" fill="#14161C"/>
  <rect x="624" y="224" width="13" height="13" rx="3" fill="#14161C"/>
  <rect x="624" y="240" width="13" height="13" rx="3" fill="#14161C"/>
  <rect x="624" y="256" width="13" height="13" rx="3" fill="#14161C"/>
  <rect x="640" y="160" width="13" height="13" rx="3" fill="#14161C"/>
  <rect x="640" y="176" width="13" height="13" rx="3" fill="#14161C"/>
  <rect x="640" y="192" width="13" height="13" rx="3" fill="#2D2A5E"/>
  <rect x="640" y="208" width="13" height="13" rx="3" fill="#2D2A5E"/>
  <rect x="640" y="224" width="13" height="13" rx="3" fill="#4E44A8"/>
  <rect x="640" y="240" width="13" height="13" rx="3" fill="#14161C"/>
  <rect x="640" y="256" width="13" height="13" rx="3" fill="#14161C"/>
  <rect x="656" y="160" width="13" height="13" rx="3" fill="#14161C"/>
  <rect x="656" y="176" width="13" height="13" rx="3" fill="#14161C"/>
  <rect x="656" y="192" width="13" height="13" rx="3" fill="#14161C"/>
  <rect x="656" y="208" width="13" height="13" rx="3" fill="#14161C"/>
  <rect x="656" y="224" width="13" height="13" rx="3" fill="#14161C"/>
  <rect x="656" y="240" width="13" height="13" rx="3" fill="#14161C"/>
  <rect x="656" y="256" width="13" height="13" rx="3" fill="#14161C"/>
  <rect x="672" y="160" width="13" height="13" rx="3" fill="#14161C"/>
  <rect x="672" y="176" width="13" height="13" rx="3" fill="#14161C"/>
  <rect x="672" y="192" width="13" height="13" rx="3" fill="#14161C"/>
  <rect x="672" y="208" width="13" height="13" rx="3" fill="#14161C"/>
  <rect x="672" y="224" width="13" height="13" rx="3" fill="#14161C"/>
  <rect x="672" y="240" width="13" height="13" rx="3" fill="#14161C"/>
  <rect x="672" y="256" width="13" height="13" rx="3" fill="#14161C"/>
  <rect x="688" y="160" width="13" height="13" rx="3" fill="#14161C"/>
  <rect x="688" y="176" width="13" height="13" rx="3" fill="#14161C"/>
  <rect x="688" y="192" width="13" height="13" rx="3" fill="#14161C"/>
  <rect x="688" y="208" width="13" height="13" rx="3" fill="#14161C"/>
  <rect x="688" y="224" width="13" height="13" rx="3" fill="#14161C"/>
  <rect x="688" y="240" width="13" height="13" rx="3" fill="#14161C"/>
  <rect x="688" y="256" width="13" height="13" rx="3" fill="#14161C"/>
  <rect x="704" y="160" width="13" height="13" rx="3" fill="#14161C"/>
  <rect x="704" y="176" width="13" height="13" rx="3" fill="#14161C"/>
  <rect x="704" y="192" width="13" height="13" rx="3" fill="#14161C"/>
  <rect x="704" y="208" width="13" height="13" rx="3" fill="#14161C"/>
  <rect x="704" y="224" width="13" height="13" rx="3" fill="#14161C"/>
  <rect x="704" y="240" width="13" height="13" rx="3" fill="#14161C"/>
  <rect x="704" y="256" width="13" height="13" rx="3" fill="#14161C"/>
  <rect x="720" y="160" width="13" height="13" rx="3" fill="#14161C"/>
  <rect x="720" y="176" width="13" height="13" rx="3" fill="#14161C"/>
  <rect x="720" y="192" width="13" height="13" rx="3" fill="#14161C"/>
  <rect x="720" y="208" width="13" height="13" rx="3" fill="#14161C"/>
  <rect x="720" y="224" width="13" height="13" rx="3" fill="#14161C"/>
  <rect x="720" y="240" width="13" height="13" rx="3" fill="#14161C"/>
  <rect x="720" y="256" width="13" height="13" rx="3" fill="#14161C"/>
  <rect x="736" y="160" width="13" height="13" rx="3" fill="#14161C"/>
  <rect x="736" y="176" width="13" height="13" rx="3" fill="#14161C"/>
  <rect x="736" y="192" width="13" height="13" rx="3" fill="#2D2A5E"/>
  <rect x="736" y="208" width="13" height="13" rx="3" fill="#14161C"/>
  <rect x="736" y="224" width="13" height="13" rx="3" fill="#4E44A8"/>
  <rect x="736" y="240" width="13" height="13" rx="3" fill="#6353D8"/>
  <rect x="736" y="256" width="13" height="13" rx="3" fill="#14161C"/>
  <rect x="752" y="160" width="13" height="13" rx="3" fill="#4E44A8"/>
  <rect x="752" y="176" width="13" height="13" rx="3" fill="#14161C"/>
  <rect x="752" y="192" width="13" height="13" rx="3" fill="#14161C"/>
  <rect x="752" y="208" width="13" height="13" rx="3" fill="#14161C"/>
  <rect x="752" y="224" width="13" height="13" rx="3" fill="#14161C"/>
  <rect x="752" y="240" width="13" height="13" rx="3" fill="#14161C"/>
  <rect x="752" y="256" width="13" height="13" rx="3" fill="#14161C"/>
  <rect x="768" y="160" width="13" height="13" rx="3" fill="#14161C"/>
  <rect x="768" y="176" width="13" height="13" rx="3" fill="#14161C"/>
  <rect x="768" y="192" width="13" height="13" rx="3" fill="#14161C"/>
  <rect x="768" y="208" width="13" height="13" rx="3" fill="#14161C"/>
  <rect x="768" y="224" width="13" height="13" rx="3" fill="#14161C"/>
  <rect x="768" y="240" width="13" height="13" rx="3" fill="#14161C"/>
  <rect x="768" y="256" width="13" height="13" rx="3" fill="#14161C"/>
  <rect x="784" y="160" width="13" height="13" rx="3" fill="#14161C"/>
  <rect x="784" y="176" width="13" height="13" rx="3" fill="#14161C"/>
  <rect x="784" y="192" width="13" height="13" rx="3" fill="#14161C"/>
  <rect x="784" y="208" width="13" height="13" rx="3" fill="#14161C"/>
  <rect x="784" y="224" width="13" height="13" rx="3" fill="#4E44A8"/>
  <rect x="784" y="240" width="13" height="13" rx="3" fill="#14161C"/>
  <rect x="784" y="256" width="13" height="13" rx="3" fill="#14161C"/>
  <rect x="800" y="160" width="13" height="13" rx="3" fill="#14161C"/>
  <rect x="800" y="176" width="13" height="13" rx="3" fill="#14161C"/>
  <rect x="800" y="192" width="13" height="13" rx="3" fill="#14161C"/>
  <rect x="800" y="208" width="13" height="13" rx="3" fill="#14161C"/>
  <rect x="800" y="224" width="13" height="13" rx="3" fill="#2D2A5E"/>
  <rect x="800" y="240" width="13" height="13" rx="3" fill="#14161C"/>
  <rect x="800" y="256" width="13" height="13" rx="3" fill="#14161C"/>
  <rect x="816" y="160" width="13" height="13" rx="3" fill="#14161C"/>
  <rect x="816" y="176" width="13" height="13" rx="3" fill="#14161C"/>
  <rect x="816" y="192" width="13" height="13" rx="3" fill="#4E44A8"/>
  <rect x="816" y="208" width="13" height="13" rx="3" fill="#14161C"/>
  <rect x="816" y="224" width="13" height="13" rx="3" fill="#14161C"/>
  <rect x="816" y="240" width="13" height="13" rx="3" fill="#14161C"/>
  <rect x="816" y="256" width="13" height="13" rx="3" fill="#14161C"/>
  <rect x="832" y="160" width="13" height="13" rx="3" fill="#14161C"/>
  <rect x="832" y="176" width="13" height="13" rx="3" fill="#14161C"/>
  <rect x="832" y="192" width="13" height="13" rx="3" fill="#14161C"/>
  <rect x="832" y="208" width="13" height="13" rx="3" fill="#14161C"/>
  <rect x="832" y="224" width="13" height="13" rx="3" fill="#2D2A5E"/>
  <rect x="832" y="240" width="13" height="13" rx="3" fill="#14161C"/>
  <rect x="832" y="256" width="13" height="13" rx="3" fill="#14161C"/>
  <rect x="848" y="160" width="13" height="13" rx="3" fill="#14161C"/>
  <rect x="848" y="176" width="13" height="13" rx="3" fill="#14161C"/>
  <rect x="848" y="192" width="13" height="13" rx="3" fill="#14161C"/>
  <rect x="848" y="208" width="13" height="13" rx="3" fill="#14161C"/>
  <rect x="848" y="224" width="13" height="13" rx="3" fill="#14161C"/>
  <rect x="848" y="240" width="13" height="13" rx="3" fill="#14161C"/>
  <rect x="848" y="256" width="13" height="13" rx="3" fill="#14161C"/>
  <rect x="864" y="160" width="13" height="13" rx="3" fill="#14161C"/>
  <rect x="864" y="176" width="13" height="13" rx="3" fill="#14161C"/>
  <rect x="864" y="192" width="13" height="13" rx="3" fill="#14161C"/>
  <rect x="864" y="208" width="13" height="13" rx="3" fill="#14161C"/>
  <rect x="864" y="224" width="13" height="13" rx="3" fill="#14161C"/>
  <rect x="864" y="240" width="13" height="13" rx="3" fill="#14161C"/>
  <rect x="864" y="256" width="13" height="13" rx="3" fill="#14161C"/>
  <rect x="880" y="160" width="13" height="13" rx="3" fill="#14161C"/>
  <rect x="880" y="176" width="13" height="13" rx="3" fill="#14161C"/>
  <rect x="880" y="192" width="13" height="13" rx="3" fill="#14161C"/>
  <rect x="880" y="208" width="13" height="13" rx="3" fill="#14161C"/>
  <rect x="880" y="224" width="13" height="13" rx="3" fill="#2D2A5E"/>
  <rect x="880" y="240" width="13" height="13" rx="3" fill="#14161C"/>
  <rect x="880" y="256" width="13" height="13" rx="3" fill="#14161C"/>
  <rect x="896" y="160" width="13" height="13" rx="3" fill="#14161C"/>
  <rect x="896" y="176" width="13" height="13" rx="3" fill="#14161C"/>
  <rect x="896" y="192" width="13" height="13" rx="3" fill="#2D2A5E"/>
  <rect x="896" y="208" width="13" height="13" rx="3" fill="#14161C"/>
  <rect x="896" y="224" width="13" height="13" rx="3" fill="#14161C"/>
  <rect x="896" y="240" width="13" height="13" rx="3" fill="#6353D8"/>
  <rect x="896" y="256" width="13" height="13" rx="3" fill="#8B7EFF"/>
  <rect x="912" y="160" width="13" height="13" rx="3" fill="#6353D8"/>
  <rect x="912" y="176" width="13" height="13" rx="3" fill="#6353D8"/>
  <rect x="912" y="192" width="13" height="13" rx="3" fill="#8B7EFF"/>
  <rect x="912" y="208" width="13" height="13" rx="3" fill="#8B7EFF"/>
  <rect x="912" y="224" width="13" height="13" rx="3" fill="#8B7EFF"/>
  <rect x="912" y="240" width="13" height="13" rx="3" fill="#8B7EFF"/>
  <rect x="912" y="256" width="13" height="13" rx="3" fill="#6353D8"/>
  <rect x="928" y="160" width="13" height="13" rx="3" fill="#6353D8"/>
  <rect x="928" y="176" width="13" height="13" rx="3" fill="#8B7EFF"/>
  <rect x="928" y="192" width="13" height="13" rx="3" fill="#8B7EFF"/>
  <rect x="928" y="208" width="13" height="13" rx="3" fill="#8B7EFF"/>
  <rect x="928" y="224" width="13" height="13" rx="3" fill="#8B7EFF"/>
  <text x="1024" y="314" font-family="ui-monospace, SFMono-Regular, Menlo, monospace" font-size="10" font-weight="500" fill="#6B7085" letter-spacing="1.8">LESS</text><rect x="1064" y="304" width="13" height="13" rx="3" fill="#14161C"/><rect x="1080" y="304" width="13" height="13" rx="3" fill="#2D2A5E"/><rect x="1096" y="304" width="13" height="13" rx="3" fill="#4E44A8"/><rect x="1112" y="304" width="13" height="13" rx="3" fill="#6353D8"/><rect x="1128" y="304" width="13" height="13" rx="3" fill="#8B7EFF"/><text x="1148" y="314" font-family="ui-monospace, SFMono-Regular, Menlo, monospace" font-size="10" font-weight="500" fill="#6B7085" letter-spacing="1.8">MORE</text>
</svg>
